<?xml version="1.0" standalone="no"?>
<!DOCTYPE svg PUBLIC "-//W3C//DTD SVG 20010904//EN"
 "http://www.w3.org/TR/2001/REC-SVG-20010904/DTD/svg10.dtd">
<svg version="1.0" xmlns="http://www.w3.org/2000/svg"
 width="260.000000pt" height="260.000000pt" viewBox="0 0 260.000000 260.000000"
 preserveAspectRatio="xMidYMid meet">
<metadata>
Created by potrace 1.11, written by Peter Selinger 2001-2013
</metadata>
<g transform="translate(0.000000,260.000000) scale(0.100000,-0.100000)"
fill="#000000" stroke="none">
<path d="M600 2265 l0 -105 -27 -6 c-157 -34 -271 -120 -332 -249 -37 -78 -48
-134 -45 -224 7 -164 70 -286 198 -380 67 -50 121 -78 304 -160 164 -74 214
-106 237 -151 36 -70 23 -143 -36 -194 -52 -44 -118 -60 -215 -53 -119 9 -206
59 -279 163 l-31 43 -139 -80 c-77 -45 -142 -83 -144 -85 -8 -7 75 -118 128
-171 84 -83 219 -151 336 -168 l45 -7 0 -103 0 -103 105 0 105 -1 0 100 c0 54
3 99 8 100 4 0 14 2 22 4 8 1 35 6 59 10 195 30 369 189 397 365 48 304 -77
489 -437 646 -243 105 -301 146 -315 219 -20 107 50 186 164 187 82 0 170 -52
208 -124 l14 -27 133 86 c72 47 133 87 135 88 10 9 -40 79 -97 135 -72 72
-149 114 -238 132 l-53 11 0 103 0 104 -105 0 -105 0 0 -105z"/>
<path d="M1985 1532 c-66 -8 -153 -35 -216 -69 -262 -137 -358 -460 -221 -743
32 -66 138 -176 204 -212 101 -56 164 -72 298 -75 183 -4 297 34 408 135 l52
48 -77 71 c-43 38 -94 84 -114 101 l-36 31 -34 -28 c-113 -93 -256 -95 -346
-5 -102 103 -97 307 11 402 86 75 236 67 322 -17 l40 -40 117 95 c64 52 117
99 117 103 0 17 -123 122 -171 147 -91 46 -242 70 -354 56z"/>
</g>
</svg>
